G04 #@! TF.GenerationSoftware,KiCad,Pcbnew,(5.1.7-0-10_14)*
G04 #@! TF.CreationDate,2021-05-07T19:31:10+02:00*
G04 #@! TF.ProjectId,National Keyboard Mux Board,4e617469-6f6e-4616-9c20-4b6579626f61,rev?*
G04 #@! TF.SameCoordinates,Original*
G04 #@! TF.FileFunction,Copper,L1,Top*
G04 #@! TF.FilePolarity,Positive*
%FSLAX46Y46*%
G04 Gerber Fmt 4.6, Leading zero omitted, Abs format (unit mm)*
G04 Created by KiCad (PCBNEW (5.1.7-0-10_14)) date 2021-05-07 19:31:10*
%MOMM*%
%LPD*%
G01*
G04 APERTURE LIST*
G04 #@! TA.AperFunction,Profile*
%ADD10C,0.150000*%
G04 #@! TD*
G04 #@! TA.AperFunction,SMDPad,CuDef*
%ADD11R,0.900000X0.800000*%
G04 #@! TD*
G04 #@! TA.AperFunction,ComponentPad*
%ADD12R,1.727200X1.727200*%
G04 #@! TD*
G04 #@! TA.AperFunction,ComponentPad*
%ADD13O,1.727200X1.727200*%
G04 #@! TD*
G04 #@! TA.AperFunction,SMDPad,CuDef*
%ADD14R,1.500000X1.000000*%
G04 #@! TD*
G04 #@! TA.AperFunction,ViaPad*
%ADD15C,0.800000*%
G04 #@! TD*
G04 #@! TA.AperFunction,Conductor*
%ADD16C,0.250000*%
G04 #@! TD*
G04 APERTURE END LIST*
D10*
X70000000Y-102250000D02*
X70000000Y-64750000D01*
X150000000Y-102250000D02*
X70000000Y-102250000D01*
X150000000Y-64750000D02*
X150000000Y-102250000D01*
X70000000Y-64750000D02*
X150000000Y-64750000D01*
D11*
X138000000Y-89000000D03*
X140000000Y-88050000D03*
X140000000Y-89950000D03*
X137500000Y-72800000D03*
X139500000Y-71850000D03*
X139500000Y-73750000D03*
X124500000Y-72800000D03*
X126500000Y-71850000D03*
X126500000Y-73750000D03*
X122000000Y-72800000D03*
X120000000Y-73750000D03*
X120000000Y-71850000D03*
X98000000Y-72800000D03*
X100000000Y-71850000D03*
X100000000Y-73750000D03*
X95500000Y-73000000D03*
X93500000Y-73950000D03*
X93500000Y-72050000D03*
X82200000Y-73000000D03*
X80200000Y-73950000D03*
X80200000Y-72050000D03*
X82000000Y-89200000D03*
X80000000Y-90150000D03*
X80000000Y-88250000D03*
D12*
X101346000Y-97500000D03*
D13*
X101346000Y-94960000D03*
X103886000Y-97500000D03*
X103886000Y-94960000D03*
X106426000Y-97500000D03*
X106426000Y-94960000D03*
X108966000Y-97500000D03*
X108966000Y-94960000D03*
X111506000Y-97500000D03*
X111506000Y-94960000D03*
X114046000Y-97500000D03*
X114046000Y-94960000D03*
X116586000Y-97500000D03*
X116586000Y-94960000D03*
X119126000Y-97500000D03*
X119126000Y-94960000D03*
D14*
X91500000Y-82350000D03*
X91500000Y-83650000D03*
X96500000Y-82350000D03*
X96500000Y-83650000D03*
X101500000Y-83650000D03*
X101500000Y-82350000D03*
X106500000Y-82350000D03*
X106500000Y-83650000D03*
X111500000Y-83650000D03*
X111500000Y-82350000D03*
X116500000Y-82350000D03*
X116500000Y-83650000D03*
X121500000Y-83650000D03*
X121500000Y-82350000D03*
X126500000Y-82350000D03*
X126500000Y-83650000D03*
G04 #@! TA.AperFunction,ComponentPad*
G36*
G01*
X74500000Y-86500000D02*
X74500000Y-84500000D01*
G75*
G02*
X75500000Y-83500000I1000000J0D01*
G01*
X77500000Y-83500000D01*
G75*
G02*
X78500000Y-84500000I0J-1000000D01*
G01*
X78500000Y-86500000D01*
G75*
G02*
X77500000Y-87500000I-1000000J0D01*
G01*
X75500000Y-87500000D01*
G75*
G02*
X74500000Y-86500000I0J1000000D01*
G01*
G37*
G04 #@! TD.AperFunction*
G04 #@! TA.AperFunction,ComponentPad*
G36*
G01*
X74500000Y-94000000D02*
X74500000Y-92000000D01*
G75*
G02*
X75500000Y-91000000I1000000J0D01*
G01*
X77500000Y-91000000D01*
G75*
G02*
X78500000Y-92000000I0J-1000000D01*
G01*
X78500000Y-94000000D01*
G75*
G02*
X77500000Y-95000000I-1000000J0D01*
G01*
X75500000Y-95000000D01*
G75*
G02*
X74500000Y-94000000I0J1000000D01*
G01*
G37*
G04 #@! TD.AperFunction*
G04 #@! TA.AperFunction,ComponentPad*
G36*
G01*
X74500000Y-69500000D02*
X74500000Y-67500000D01*
G75*
G02*
X75500000Y-66500000I1000000J0D01*
G01*
X77500000Y-66500000D01*
G75*
G02*
X78500000Y-67500000I0J-1000000D01*
G01*
X78500000Y-69500000D01*
G75*
G02*
X77500000Y-70500000I-1000000J0D01*
G01*
X75500000Y-70500000D01*
G75*
G02*
X74500000Y-69500000I0J1000000D01*
G01*
G37*
G04 #@! TD.AperFunction*
G04 #@! TA.AperFunction,ComponentPad*
G36*
G01*
X74500000Y-78000000D02*
X74500000Y-76000000D01*
G75*
G02*
X75500000Y-75000000I1000000J0D01*
G01*
X77500000Y-75000000D01*
G75*
G02*
X78500000Y-76000000I0J-1000000D01*
G01*
X78500000Y-78000000D01*
G75*
G02*
X77500000Y-79000000I-1000000J0D01*
G01*
X75500000Y-79000000D01*
G75*
G02*
X74500000Y-78000000I0J1000000D01*
G01*
G37*
G04 #@! TD.AperFunction*
G04 #@! TA.AperFunction,ComponentPad*
G36*
G01*
X87900000Y-69500000D02*
X87900000Y-67500000D01*
G75*
G02*
X88900000Y-66500000I1000000J0D01*
G01*
X90900000Y-66500000D01*
G75*
G02*
X91900000Y-67500000I0J-1000000D01*
G01*
X91900000Y-69500000D01*
G75*
G02*
X90900000Y-70500000I-1000000J0D01*
G01*
X88900000Y-70500000D01*
G75*
G02*
X87900000Y-69500000I0J1000000D01*
G01*
G37*
G04 #@! TD.AperFunction*
G04 #@! TA.AperFunction,ComponentPad*
G36*
G01*
X87900000Y-78000000D02*
X87900000Y-76000000D01*
G75*
G02*
X88900000Y-75000000I1000000J0D01*
G01*
X90900000Y-75000000D01*
G75*
G02*
X91900000Y-76000000I0J-1000000D01*
G01*
X91900000Y-78000000D01*
G75*
G02*
X90900000Y-79000000I-1000000J0D01*
G01*
X88900000Y-79000000D01*
G75*
G02*
X87900000Y-78000000I0J1000000D01*
G01*
G37*
G04 #@! TD.AperFunction*
G04 #@! TA.AperFunction,ComponentPad*
G36*
G01*
X101300000Y-69500000D02*
X101300000Y-67500000D01*
G75*
G02*
X102300000Y-66500000I1000000J0D01*
G01*
X104300000Y-66500000D01*
G75*
G02*
X105300000Y-67500000I0J-1000000D01*
G01*
X105300000Y-69500000D01*
G75*
G02*
X104300000Y-70500000I-1000000J0D01*
G01*
X102300000Y-70500000D01*
G75*
G02*
X101300000Y-69500000I0J1000000D01*
G01*
G37*
G04 #@! TD.AperFunction*
G04 #@! TA.AperFunction,ComponentPad*
G36*
G01*
X101300000Y-78000000D02*
X101300000Y-76000000D01*
G75*
G02*
X102300000Y-75000000I1000000J0D01*
G01*
X104300000Y-75000000D01*
G75*
G02*
X105300000Y-76000000I0J-1000000D01*
G01*
X105300000Y-78000000D01*
G75*
G02*
X104300000Y-79000000I-1000000J0D01*
G01*
X102300000Y-79000000D01*
G75*
G02*
X101300000Y-78000000I0J1000000D01*
G01*
G37*
G04 #@! TD.AperFunction*
G04 #@! TA.AperFunction,ComponentPad*
G36*
G01*
X114700000Y-69500000D02*
X114700000Y-67500000D01*
G75*
G02*
X115700000Y-66500000I1000000J0D01*
G01*
X117700000Y-66500000D01*
G75*
G02*
X118700000Y-67500000I0J-1000000D01*
G01*
X118700000Y-69500000D01*
G75*
G02*
X117700000Y-70500000I-1000000J0D01*
G01*
X115700000Y-70500000D01*
G75*
G02*
X114700000Y-69500000I0J1000000D01*
G01*
G37*
G04 #@! TD.AperFunction*
G04 #@! TA.AperFunction,ComponentPad*
G36*
G01*
X114700000Y-78000000D02*
X114700000Y-76000000D01*
G75*
G02*
X115700000Y-75000000I1000000J0D01*
G01*
X117700000Y-75000000D01*
G75*
G02*
X118700000Y-76000000I0J-1000000D01*
G01*
X118700000Y-78000000D01*
G75*
G02*
X117700000Y-79000000I-1000000J0D01*
G01*
X115700000Y-79000000D01*
G75*
G02*
X114700000Y-78000000I0J1000000D01*
G01*
G37*
G04 #@! TD.AperFunction*
G04 #@! TA.AperFunction,ComponentPad*
G36*
G01*
X128100000Y-69500000D02*
X128100000Y-67500000D01*
G75*
G02*
X129100000Y-66500000I1000000J0D01*
G01*
X131100000Y-66500000D01*
G75*
G02*
X132100000Y-67500000I0J-1000000D01*
G01*
X132100000Y-69500000D01*
G75*
G02*
X131100000Y-70500000I-1000000J0D01*
G01*
X129100000Y-70500000D01*
G75*
G02*
X128100000Y-69500000I0J1000000D01*
G01*
G37*
G04 #@! TD.AperFunction*
G04 #@! TA.AperFunction,ComponentPad*
G36*
G01*
X128100000Y-78000000D02*
X128100000Y-76000000D01*
G75*
G02*
X129100000Y-75000000I1000000J0D01*
G01*
X131100000Y-75000000D01*
G75*
G02*
X132100000Y-76000000I0J-1000000D01*
G01*
X132100000Y-78000000D01*
G75*
G02*
X131100000Y-79000000I-1000000J0D01*
G01*
X129100000Y-79000000D01*
G75*
G02*
X128100000Y-78000000I0J1000000D01*
G01*
G37*
G04 #@! TD.AperFunction*
G04 #@! TA.AperFunction,ComponentPad*
G36*
G01*
X141500000Y-69500000D02*
X141500000Y-67500000D01*
G75*
G02*
X142500000Y-66500000I1000000J0D01*
G01*
X144500000Y-66500000D01*
G75*
G02*
X145500000Y-67500000I0J-1000000D01*
G01*
X145500000Y-69500000D01*
G75*
G02*
X144500000Y-70500000I-1000000J0D01*
G01*
X142500000Y-70500000D01*
G75*
G02*
X141500000Y-69500000I0J1000000D01*
G01*
G37*
G04 #@! TD.AperFunction*
G04 #@! TA.AperFunction,ComponentPad*
G36*
G01*
X141500000Y-78000000D02*
X141500000Y-76000000D01*
G75*
G02*
X142500000Y-75000000I1000000J0D01*
G01*
X144500000Y-75000000D01*
G75*
G02*
X145500000Y-76000000I0J-1000000D01*
G01*
X145500000Y-78000000D01*
G75*
G02*
X144500000Y-79000000I-1000000J0D01*
G01*
X142500000Y-79000000D01*
G75*
G02*
X141500000Y-78000000I0J1000000D01*
G01*
G37*
G04 #@! TD.AperFunction*
G04 #@! TA.AperFunction,ComponentPad*
G36*
G01*
X141500000Y-86500000D02*
X141500000Y-84500000D01*
G75*
G02*
X142500000Y-83500000I1000000J0D01*
G01*
X144500000Y-83500000D01*
G75*
G02*
X145500000Y-84500000I0J-1000000D01*
G01*
X145500000Y-86500000D01*
G75*
G02*
X144500000Y-87500000I-1000000J0D01*
G01*
X142500000Y-87500000D01*
G75*
G02*
X141500000Y-86500000I0J1000000D01*
G01*
G37*
G04 #@! TD.AperFunction*
G04 #@! TA.AperFunction,ComponentPad*
G36*
G01*
X141500000Y-93500000D02*
X141500000Y-91500000D01*
G75*
G02*
X142500000Y-90500000I1000000J0D01*
G01*
X144500000Y-90500000D01*
G75*
G02*
X145500000Y-91500000I0J-1000000D01*
G01*
X145500000Y-93500000D01*
G75*
G02*
X144500000Y-94500000I-1000000J0D01*
G01*
X142500000Y-94500000D01*
G75*
G02*
X141500000Y-93500000I0J1000000D01*
G01*
G37*
G04 #@! TD.AperFunction*
G04 #@! TA.AperFunction,ComponentPad*
G36*
G01*
X108000000Y-69500000D02*
X108000000Y-67500000D01*
G75*
G02*
X109000000Y-66500000I1000000J0D01*
G01*
X111000000Y-66500000D01*
G75*
G02*
X112000000Y-67500000I0J-1000000D01*
G01*
X112000000Y-69500000D01*
G75*
G02*
X111000000Y-70500000I-1000000J0D01*
G01*
X109000000Y-70500000D01*
G75*
G02*
X108000000Y-69500000I0J1000000D01*
G01*
G37*
G04 #@! TD.AperFunction*
G04 #@! TA.AperFunction,ComponentPad*
G36*
G01*
X108000000Y-78000000D02*
X108000000Y-76000000D01*
G75*
G02*
X109000000Y-75000000I1000000J0D01*
G01*
X111000000Y-75000000D01*
G75*
G02*
X112000000Y-76000000I0J-1000000D01*
G01*
X112000000Y-78000000D01*
G75*
G02*
X111000000Y-79000000I-1000000J0D01*
G01*
X109000000Y-79000000D01*
G75*
G02*
X108000000Y-78000000I0J1000000D01*
G01*
G37*
G04 #@! TD.AperFunction*
X94000000Y-83650000D03*
X94000000Y-82350000D03*
X99000000Y-83650000D03*
X99000000Y-82350000D03*
X104000000Y-82350000D03*
X104000000Y-83650000D03*
X109000000Y-83650000D03*
X109000000Y-82350000D03*
X114000000Y-82350000D03*
X114000000Y-83650000D03*
X119000000Y-83650000D03*
X119000000Y-82350000D03*
X124000000Y-82350000D03*
X124000000Y-83650000D03*
X129000000Y-82350000D03*
X129000000Y-83650000D03*
D15*
X82500000Y-78500000D03*
X95500000Y-76000000D03*
X98000000Y-70500000D03*
X122000000Y-70500000D03*
X124500000Y-76000000D03*
X135500000Y-73000000D03*
X94234000Y-80772000D03*
X99314000Y-80772000D03*
X104140000Y-80772000D03*
X108966000Y-80772000D03*
X113284000Y-80772000D03*
X118110000Y-80772000D03*
X123190000Y-80772000D03*
X128270000Y-80772000D03*
D16*
X76500000Y-85500000D02*
X78338477Y-85500000D01*
X77250000Y-85500000D02*
X80000000Y-88250000D01*
X76500000Y-85500000D02*
X77250000Y-85500000D01*
X77150000Y-93000000D02*
X80000000Y-90150000D01*
X76500000Y-93000000D02*
X77150000Y-93000000D01*
X77150000Y-77000000D02*
X80200000Y-73950000D01*
X76500000Y-77000000D02*
X77150000Y-77000000D01*
X93450000Y-72050000D02*
X93500000Y-72050000D01*
X89900000Y-68500000D02*
X93450000Y-72050000D01*
X90450000Y-77000000D02*
X93500000Y-73950000D01*
X89900000Y-77000000D02*
X90450000Y-77000000D01*
X100000000Y-71800000D02*
X103300000Y-68500000D01*
X100000000Y-71850000D02*
X100000000Y-71800000D01*
X116700000Y-68550000D02*
X120000000Y-71850000D01*
X116700000Y-68500000D02*
X116700000Y-68550000D01*
X116700000Y-75161523D02*
X116700000Y-77000000D01*
X119950000Y-73750000D02*
X120000000Y-73750000D01*
X116700000Y-77000000D02*
X119950000Y-73750000D01*
X126750000Y-71850000D02*
X130100000Y-68500000D01*
X126500000Y-71850000D02*
X126750000Y-71850000D01*
X140150000Y-71850000D02*
X143500000Y-68500000D01*
X139500000Y-71850000D02*
X140150000Y-71850000D01*
X140250000Y-73750000D02*
X143500000Y-77000000D01*
X139500000Y-73750000D02*
X140250000Y-73750000D01*
X140950000Y-88050000D02*
X143500000Y-85500000D01*
X140000000Y-88050000D02*
X140950000Y-88050000D01*
X90300000Y-97500000D02*
X82000000Y-89200000D01*
X101346000Y-97500000D02*
X90300000Y-97500000D01*
X76650000Y-68500000D02*
X80200000Y-72050000D01*
X76500000Y-68500000D02*
X76650000Y-68500000D01*
X82500000Y-73300000D02*
X82200000Y-73000000D01*
X82500000Y-78500000D02*
X82500000Y-73300000D01*
X95500000Y-76000000D02*
X95500000Y-73000000D01*
X100050000Y-73750000D02*
X103300000Y-77000000D01*
X100000000Y-73750000D02*
X100050000Y-73750000D01*
X98000000Y-70500000D02*
X98000000Y-72800000D01*
X122000000Y-70500000D02*
X122000000Y-72800000D01*
X126850000Y-73750000D02*
X130100000Y-77000000D01*
X126500000Y-73750000D02*
X126850000Y-73750000D01*
X124500000Y-76000000D02*
X124500000Y-72800000D01*
X135700000Y-72800000D02*
X135500000Y-73000000D01*
X137500000Y-72800000D02*
X135700000Y-72800000D01*
X140950000Y-89950000D02*
X143500000Y-92500000D01*
X140000000Y-89950000D02*
X140950000Y-89950000D01*
X127626000Y-89000000D02*
X119126000Y-97500000D01*
X138000000Y-89000000D02*
X127626000Y-89000000D01*
X94000000Y-81006000D02*
X94234000Y-80772000D01*
X94000000Y-82350000D02*
X94000000Y-81006000D01*
X99000000Y-81086000D02*
X99314000Y-80772000D01*
X99000000Y-82350000D02*
X99000000Y-81086000D01*
X104000000Y-80912000D02*
X104140000Y-80772000D01*
X104000000Y-82350000D02*
X104000000Y-80912000D01*
X109000000Y-80806000D02*
X108966000Y-80772000D01*
X109000000Y-82350000D02*
X109000000Y-80806000D01*
X114000000Y-81488000D02*
X113284000Y-80772000D01*
X114000000Y-82350000D02*
X114000000Y-81488000D01*
X119000000Y-81662000D02*
X118110000Y-80772000D01*
X119000000Y-82350000D02*
X119000000Y-81662000D01*
X124000000Y-81582000D02*
X123190000Y-80772000D01*
X124000000Y-82350000D02*
X124000000Y-81582000D01*
X129000000Y-81502000D02*
X128270000Y-80772000D01*
X129000000Y-82350000D02*
X129000000Y-81502000D01*
X111500000Y-78500000D02*
X110000000Y-77000000D01*
X116500000Y-81600000D02*
X114900000Y-80000000D01*
X114900000Y-80000000D02*
X111500000Y-80000000D01*
X116500000Y-82350000D02*
X116500000Y-81600000D01*
X111500000Y-80000000D02*
X111500000Y-78500000D01*
X111500000Y-82350000D02*
X111500000Y-80000000D01*
X119900000Y-80000000D02*
X114900000Y-80000000D01*
X121500000Y-81600000D02*
X119900000Y-80000000D01*
X121500000Y-82350000D02*
X121500000Y-81600000D01*
X126500000Y-82350000D02*
X126500000Y-81500000D01*
X125000000Y-80000000D02*
X119900000Y-80000000D01*
X126500000Y-81500000D02*
X125000000Y-80000000D01*
X106500000Y-82350000D02*
X106500000Y-81000000D01*
X106500000Y-81000000D02*
X107500000Y-80000000D01*
X107500000Y-80000000D02*
X111500000Y-80000000D01*
X101500000Y-81600000D02*
X103100000Y-80000000D01*
X101500000Y-82350000D02*
X101500000Y-81600000D01*
X103100000Y-80000000D02*
X107500000Y-80000000D01*
X96500000Y-81600000D02*
X98100000Y-80000000D01*
X96500000Y-82350000D02*
X96500000Y-81600000D01*
X98100000Y-80000000D02*
X103100000Y-80000000D01*
X91500000Y-81600000D02*
X93100000Y-80000000D01*
X91500000Y-82350000D02*
X91500000Y-81600000D01*
X93100000Y-80000000D02*
X98000000Y-80000000D01*
X91500000Y-83650000D02*
X94000000Y-83650000D01*
X94000000Y-87460000D02*
X101500000Y-94960000D01*
X94000000Y-83650000D02*
X94000000Y-87460000D01*
X96500000Y-83650000D02*
X99000000Y-83650000D01*
X104040000Y-93738686D02*
X104040000Y-94960000D01*
X99250000Y-83650000D02*
X104040000Y-88440000D01*
X104040000Y-88440000D02*
X104040000Y-93738686D01*
X99000000Y-83650000D02*
X99250000Y-83650000D01*
X101500000Y-83650000D02*
X104000000Y-83650000D01*
X106580000Y-93738686D02*
X106580000Y-94960000D01*
X106580000Y-86980000D02*
X106580000Y-93738686D01*
X104000000Y-84400000D02*
X106580000Y-86980000D01*
X104000000Y-83650000D02*
X104000000Y-84400000D01*
X106500000Y-83650000D02*
X109000000Y-83650000D01*
X109000000Y-94840000D02*
X109120000Y-94960000D01*
X109000000Y-83650000D02*
X109000000Y-94840000D01*
X114000000Y-83650000D02*
X111500000Y-83650000D01*
X111500000Y-94800000D02*
X111660000Y-94960000D01*
X111500000Y-83650000D02*
X111500000Y-94800000D01*
X116250000Y-83650000D02*
X116500000Y-83650000D01*
X114200000Y-85700000D02*
X116250000Y-83650000D01*
X114200000Y-94960000D02*
X114200000Y-85700000D01*
X116500000Y-83650000D02*
X119000000Y-83650000D01*
X124000000Y-83650000D02*
X121500000Y-83650000D01*
X116740000Y-93738686D02*
X116740000Y-94960000D01*
X116740000Y-92773590D02*
X116740000Y-93738686D01*
X121500000Y-83650000D02*
X121500000Y-88013590D01*
X121500000Y-88013590D02*
X116740000Y-92773590D01*
X119280000Y-90870000D02*
X126500000Y-83650000D01*
X119280000Y-94960000D02*
X119280000Y-90870000D01*
X129000000Y-83650000D02*
X126500000Y-83650000D01*
M02*
