M48
; DRILL file {KiCad (5.1.7-0-10_14)} date Friday, May 07, 2021 at 07:31:14 PM
; FORMAT={-:-/ absolute / inch / decimal}
; #@! TF.CreationDate,2021-05-07T19:31:14+02:00
; #@! TF.GenerationSoftware,Kicad,Pcbnew,(5.1.7-0-10_14)
FMAT,2
INCH
T1C0.0157
T2C0.0394
T3C0.0400
%
G90
G05
T1
X3.248Y-3.0906
X3.71Y-3.18
X3.7598Y-2.9921
X3.8583Y-2.7756
X3.91Y-3.18
X4.1Y-3.18
X4.29Y-3.18
X4.46Y-3.18
X4.65Y-3.18
X4.8031Y-2.7756
X4.85Y-3.18
X4.9016Y-2.9921
X5.05Y-3.18
X5.3346Y-2.874
T3
X3.99Y-3.7386
X3.99Y-3.8386
X4.09Y-3.7386
X4.09Y-3.8386
X4.19Y-3.7386
X4.19Y-3.8386
X4.29Y-3.7386
X4.29Y-3.8386
X4.39Y-3.7386
X4.39Y-3.8386
X4.49Y-3.7386
X4.49Y-3.8386
X4.59Y-3.7386
X4.59Y-3.8386
X4.69Y-3.7386
X4.69Y-3.8386
T2
G00X5.0728Y-2.6969
M15
G01X5.1713Y-2.6969
M16
G05
G00X5.6004Y-3.0315
M15
G01X5.6988Y-3.0315
M16
G05
G00X4.2815Y-2.6969
M15
G01X4.3799Y-2.6969
M16
G05
G00X2.9626Y-2.6969
M15
G01X3.061Y-2.6969
M16
G05
G00X3.4902Y-3.0315
M15
G01X3.5886Y-3.0315
M16
G05
G00X4.5453Y-2.6969
M15
G01X4.6437Y-2.6969
M16
G05
G00X5.0728Y-3.0315
M15
G01X5.1713Y-3.0315
M16
G05
G00X5.6004Y-3.3661
M15
G01X5.6988Y-3.3661
M16
G05
G00X2.9626Y-3.3661
M15
G01X3.061Y-3.3661
M16
G05
G00X4.2815Y-3.0315
M15
G01X4.3799Y-3.0315
M16
G05
G00X2.9626Y-3.0315
M15
G01X3.061Y-3.0315
M16
G05
G00X4.0177Y-2.6969
M15
G01X4.1161Y-2.6969
M16
G05
G00X4.5453Y-3.0315
M15
G01X4.6437Y-3.0315
M16
G05
G00X5.6004Y-2.6969
M15
G01X5.6988Y-2.6969
M16
G05
G00X5.6004Y-3.6417
M15
G01X5.6988Y-3.6417
M16
G05
G00X2.9626Y-3.6614
M15
G01X3.061Y-3.6614
M16
G05
G00X3.4902Y-2.6969
M15
G01X3.5886Y-2.6969
M16
G05
G00X4.0177Y-3.0315
M15
G01X4.1161Y-3.0315
M16
G05
T0
M30
